<svg width="120" height="48" viewBox="0 0 120 48" fill="none" xmlns="http://www.w3.org/2000/svg">
<g clip-path="url(#clip0_970_1450)">
<path d="M50.5776 12.3592C50.5776 9.39985 48.1699 7 45.2009 7C42.6542 7 40.5245 8.76983 39.9685 11.1409V11.1331C39.9685 11.1331 39.2629 14.7041 36.1549 16.8765C34.4947 18.0372 32.8528 18.4503 30.668 17.7523V17.7575C30.1146 17.5667 29.5245 17.4595 28.9082 17.4595C28.2918 17.4595 27.7017 17.5693 27.1509 17.7575V17.7523C24.9635 18.4477 23.138 18.2751 20.9296 16.4138C18.7212 14.5525 17.478 10.6547 17.478 10.6547V10.6599C16.762 8.53455 14.7477 7 12.3767 7C9.49689 7 7.15212 9.2613 7.01311 12.0977L7 12.1369V22.8552C7 24.829 8.07272 26.5465 9.66475 27.4772H9.65951C9.65951 27.4772 11.0312 28.1621 11.0732 29.5006C11.1178 30.8992 9.84835 31.2207 8.86218 32.188H8.8648C7.74487 33.171 7.03672 34.6062 7.03672 36.2087C7.03672 39.168 9.44444 41.5678 12.4134 41.5678C15.3824 41.5678 17.7902 39.168 17.7902 36.2087C17.7902 34.5905 17.0663 33.1422 15.9306 32.1619H15.9358C14.9497 31.1946 13.7537 30.9018 13.7563 29.5032C13.7563 28.1673 15.2303 27.4014 15.2303 27.4014H15.2251C16.7437 26.4498 17.7561 24.7741 17.7561 22.8579V16.7144C19.2904 16.8033 21.4594 18.4477 21.4594 18.4477C23.66 20.3639 23.5367 22.7402 23.5367 22.7402H23.5419C23.5419 22.7664 23.5367 22.7925 23.5367 22.8213C23.5367 25.7806 25.9444 28.1804 28.9134 28.1804C31.8824 28.1804 34.2901 25.7806 34.2901 22.8213C34.2901 22.7298 34.2796 22.6383 34.277 22.5494H34.2849C34.2849 22.5494 34.0226 20.7665 36.349 18.4006C36.349 18.4006 39.0846 15.7263 42.148 16.7746C42.148 16.7746 42.148 16.772 42.148 16.7693C42.2686 16.853 42.3945 16.9288 42.5204 17.002H42.5152C42.5152 17.002 42.5519 17.0229 42.607 17.0543C42.6201 17.0621 42.6332 17.07 42.6489 17.0778C42.9873 17.2791 43.8502 17.9039 43.8633 18.9836C43.8817 20.3848 42.6332 20.6933 41.6733 21.6527H41.6785C40.5481 22.6383 39.8294 24.0813 39.8294 25.6943V36.2087C39.8294 39.168 42.2372 41.5678 45.2062 41.5678C48.1752 41.5678 50.5829 39.168 50.5829 36.2087V25.6943C50.5829 24.0813 49.8642 22.6383 48.7338 21.6553H48.7391C47.7791 20.6933 46.5307 20.3848 46.549 18.9836C46.5621 17.9013 47.4277 17.2791 47.7634 17.0778C47.7765 17.07 47.7896 17.0621 47.8053 17.0543C47.863 17.0229 47.8971 17.0046 47.8971 17.0046H47.8919C49.4997 16.074 50.5829 14.346 50.5829 12.3644L50.5776 12.3592Z" fill="current"/>
<path d="M67.5235 21.653H67.5288C66.5688 20.691 65.3204 20.3825 65.3387 18.9813C65.3518 17.899 66.2174 17.2768 66.5531 17.0755C66.5662 17.0677 66.5793 17.0598 66.595 17.052C66.6527 17.0206 66.6868 17.0023 66.6868 17.0023H66.6816C68.2894 16.0717 69.3726 14.3437 69.3726 12.3621C69.3726 9.40278 66.9649 7.00293 63.9959 7.00293C61.0269 7.00293 58.6191 9.40278 58.6191 12.3621C58.6191 14.3463 59.7024 16.0743 61.3101 16.9997H61.3049C61.3049 16.9997 61.3416 17.0206 61.3967 17.052C61.4098 17.0598 61.4229 17.0677 61.4386 17.0755C61.777 17.2768 62.6399 17.9016 62.653 18.9813C62.6714 20.3825 61.4229 20.691 60.463 21.6504H60.4682C59.3378 22.636 58.6191 24.079 58.6191 25.692V36.2064C58.6191 39.1657 61.0269 41.5655 63.9959 41.5655C66.9649 41.5655 69.3726 39.1657 69.3726 36.2064V25.692C69.3726 24.079 68.6539 22.636 67.5235 21.653Z" fill="current"/>
<path d="M107.623 30.8469C103.681 30.8025 102.721 30.3554 102.173 29.9973C101.614 29.6287 100.235 27.7177 101.937 25.229L111.392 16.1785C112.383 15.206 113 13.8545 113 12.3592C113 9.39985 110.592 7 107.623 7C106.159 7 104.835 7.58297 103.867 8.52932L93.9739 17.998C92.3793 18.7797 90.1211 18.2072 89.4286 17.6085C88.4136 16.7301 87.973 15.3786 88.0805 12.665H88.0727C88.0779 12.5657 88.0884 12.4637 88.0884 12.3592C88.0884 9.39985 85.6807 7 82.7117 7C79.7427 7 77.335 9.39985 77.335 12.3592C77.335 15.3184 79.7427 17.7183 82.7117 17.7183C82.7484 17.7183 82.7825 17.7131 82.8166 17.7131V17.7183C85.644 17.6529 87.1573 17.185 88.6707 18.7718C89.3657 19.4986 89.8771 21.2344 88.6025 23.1402L78.9296 32.3998C78.9296 32.3998 78.9113 32.4181 78.9034 32.4259L78.8876 32.4416C77.9277 33.4115 77.335 34.7395 77.335 36.2087C77.335 39.168 79.7427 41.5678 82.7117 41.5678C84.1673 41.5678 85.484 40.9901 86.4544 40.0542L95.9804 30.9384C97.7796 29.7385 100.198 30.3005 101.019 30.9829C101.971 31.775 102.194 33.035 102.265 35.8192H102.27C102.259 35.9473 102.249 36.0754 102.249 36.2087C102.249 39.168 104.657 41.5678 107.626 41.5678C110.595 41.5678 113.002 39.168 113.002 36.2087C113.002 33.2494 110.595 30.8495 107.626 30.8495L107.623 30.8469Z" fill="current"/>
</g>
<defs>
<clipPath id="clip0_970_1450">
<rect width="106" height="34.5652" fill="white" transform="translate(7 7)"/>
</clipPath>
</defs>
</svg>
